<?xml version="1.0" standalone="no"?>
<!DOCTYPE svg PUBLIC "-//W3C//DTD SVG 20010904//EN"
 "http://www.w3.org/TR/2001/REC-SVG-20010904/DTD/svg10.dtd">
<svg version="1.0" xmlns="http://www.w3.org/2000/svg"
 width="480.000000pt" height="286.000000pt" viewBox="0 0 480.000000 286.000000"
 preserveAspectRatio="xMidYMid meet">
<metadata>
Created by potrace 1.16, written by Peter Selinger 2001-2019
</metadata>
<g transform="translate(0.000000,286.000000) scale(0.100000,-0.100000)"
fill="#ffffff" stroke="none">
<path d="M3270 1907 c-24 -12 -24 -13 -25 -167 -2 -181 -20 -306 -45 -313 -10
-2 -25 0 -34 5 -14 8 -16 20 -11 76 4 38 2 96 -4 132 -14 76 -51 190 -63 190
-4 0 -8 -57 -8 -126 0 -148 -16 -251 -39 -258 -9 -3 -32 -2 -51 2 l-35 8 -7
108 c-7 113 -34 212 -70 257 l-19 24 8 -70 c9 -78 6 -221 -5 -275 -8 -34 -10
-35 -52 -35 l-45 0 -6 100 c-6 94 -23 164 -55 228 -8 15 -16 27 -18 27 -2 0
-4 -75 -4 -166 0 -91 -4 -169 -8 -174 -10 -9 -35 -13 -81 -11 -33 1 -33 1 -33
54 0 95 -48 277 -74 277 -5 0 -6 -37 -3 -87 8 -112 -4 -231 -23 -244 -8 -5
-33 -8 -55 -7 l-40 3 -6 60 c-11 93 -51 210 -78 220 -10 4 -12 -1 -7 -17 11
-41 19 -255 10 -260 -19 -12 -90 -18 -103 -9 -7 5 -15 29 -18 54 -6 52 -71
189 -92 196 -10 3 -12 -1 -6 -15 14 -34 35 -158 35 -205 l0 -47 -46 -4 c-53
-4 -74 5 -74 34 0 41 -93 199 -108 183 -4 -4 16 -73 39 -133 5 -13 9 -40 9
-61 0 -35 -3 -39 -31 -45 -61 -12 -67 -9 -98 52 -31 60 -95 141 -105 131 -3
-3 10 -41 29 -85 19 -43 35 -87 35 -96 0 -23 -30 -38 -74 -38 -34 0 -37 3 -66
63 -29 61 -84 127 -95 115 -3 -3 5 -27 18 -54 28 -56 41 -104 29 -104 -5 0
-32 29 -60 64 -67 82 -171 180 -256 240 -65 47 -211 127 -251 138 -11 3 -50
17 -88 31 -37 14 -85 28 -107 32 l-40 7 0 -36 c0 -38 12 -93 42 -196 49 -168
105 -270 197 -358 l65 -63 -16 -27 c-90 -146 -128 -284 -128 -460 l0 -125 47
7 c25 3 83 24 127 47 188 95 357 261 441 434 20 41 41 75 45 75 5 0 11 -15 15
-32 25 -122 51 -147 42 -40 -3 37 -3 87 1 112 l7 45 53 9 c29 5 55 6 59 2 4
-3 6 -28 4 -54 -2 -46 31 -167 51 -187 7 -7 8 19 4 80 -3 50 -2 108 2 130 7
39 8 40 54 43 l46 3 -2 -93 c-1 -89 18 -188 36 -188 4 0 8 44 8 98 0 53 6 117
14 142 12 40 17 46 49 51 53 9 63 -1 49 -49 -16 -53 -15 -172 2 -212 13 -31
13 -31 19 -9 4 13 7 43 7 66 0 46 21 137 42 180 10 22 21 29 52 31 50 4 57 -5
41 -51 -29 -83 -37 -162 -25 -223 10 -46 14 -55 21 -39 4 11 8 32 8 47 1 45
28 134 61 203 29 61 33 65 65 65 43 0 49 -10 31 -57 -32 -84 -47 -230 -27
-262 6 -9 12 4 21 40 19 84 58 190 85 231 24 36 28 38 81 38 64 0 63 5 26
-101 -25 -69 -36 -189 -24 -249 10 -50 8 -54 33 65 15 72 57 176 93 233 24 38
30 42 66 42 41 0 58 -13 42 -33 -21 -25 -50 -137 -52 -198 -4 -114 -1 -170 10
-164 6 3 10 17 10 30 0 22 14 83 39 164 6 19 27 67 48 108 l37 73 48 0 c41 0
48 -3 48 -19 0 -11 -4 -22 -9 -25 -4 -3 -18 -37 -30 -75 -17 -55 -21 -88 -19
-167 3 -106 9 -107 30 -4 7 36 35 110 63 165 49 98 51 100 87 103 54 5 82 -13
73 -46 -4 -15 -11 -43 -15 -62 -4 -19 -15 -71 -25 -115 -25 -116 -25 -252 0
-299 31 -57 71 -71 200 -70 254 1 579 45 669 91 38 19 23 31 -43 35 -30 2 -56
8 -58 13 -2 6 29 26 69 44 92 43 207 120 242 161 21 26 26 42 26 85 0 201
-154 432 -399 598 -105 71 -301 161 -403 186 -99 24 -133 26 -168 8z m480
-428 c54 -24 75 -43 106 -90 37 -59 47 -113 33 -173 -23 -97 -86 -161 -184
-186 -178 -45 -344 158 -265 323 26 53 37 67 80 99 70 51 154 61 230 27z"/>
</g>
</svg>
