<svg xmlns="http://www.w3.org/2000/svg" version="1.1" xmlns:xlink="http://www.w3.org/1999/xlink" width="1000" height="1000"><metadata><rdf:RDF xmlns:rdf="http://www.w3.org/1999/02/22-rdf-syntax-ns#" xmlns:dc="http://purl.org/dc/elements/1.1/"><rdf:Description><dc:creator>RealFaviconGenerator</dc:creator><dc:source>https://realfavicongenerator.net</dc:source></rdf:Description></rdf:RDF></metadata><g clip-path="url(#SvgjsClipPath1354)"><rect width="1000" height="1000" fill="#e2c898"></rect><g transform="matrix(0.5625,0,0,0.5625,50,50)"><svg xmlns="http://www.w3.org/2000/svg" version="1" width="1600px" height="1600px" viewBox="0 0 1600 1600" preserveAspectRatio="xMidYMid meet"><g fill="#391910">
  <path d="M339 1507 c0 -0.6 2.5 -7.4 5.6 -15.3 3.1 -7.8 6 -15.3 6.4 -16.7 2.3 -7.3 12 -34.1 13.7 -38 1.2 -2.5 2.4 -5.6 2.8 -7 0.4 -1.4 2.8 -6.5 5.3 -11.5 3.5 -6.8 6.7 -11.1 13.2 -17.8 9.6 -10.1 17.8 -15.4 29 -18.9 6.7 -2.1 9.4 -2.3 25.5 -2.2 14.2 0 20.4 0.5 29.5 2.2 17.4 3.3 29.7 6.9 37.4 10.7 5.8 2.9 7.2 3.3 8.3 2.2 0.7 -0.7 4.5 -8.2 8.4 -16.7 3.8 -8.5 7.4 -15.9 7.8 -16.5 0.5 -0.5 3.4 -6.6 6.5 -13.4 6.2 -13.5 28.2 -56.2 31.4 -60.7 1 -1.6 5.4 -8.2 9.7 -14.7 9 -13.9 22.4 -28.1 30.1 -32 l5.1 -2.6 4.2 -21.3 c2.3 -11.7 4.7 -22.6 5.2 -24.3 0.6 -1.6 5 -22.6 9.9 -46.5 8.5 -41.8 17.2 -83.5 37 -178.5 5 -24.2 13.3 -64.2 18.4 -89 5.1 -24.7 9.5 -45.7 9.9 -46.5 0.3 -0.8 4.2 -19.9 8.7 -42.5 4.5 -22.5 8.6 -42.5 9.2 -44.4 0.6 -1.9 5 -22.8 9.8 -46.5 4.9 -23.7 11.6 -56.4 14.9 -72.6 3.4 -16.2 6.1 -30.2 6.1 -31.2 0 -1.3 -0.8 -1.8 -2.5 -1.8 l-2.5 0 0 -19.5 c0 -17.7 -0.2 -19.7 -1.9 -21.2 -9.5 -9 -11.8 -11.5 -14.9 -16.3 -14.9 -23.3 -17.3 -47.4 -6.8 -70.4 8.9 -19.4 24.1 -33.6 43.4 -40.4 7.1 -2.4 8.9 -2.7 23.2 -2.7 13.5 0 16.4 0.3 22.4 2.3 10.8 3.6 20.2 9.7 29.6 19.2 14.6 14.7 20.5 29.2 20.4 50.5 0 13.7 -1.6 21.2 -6.8 32 -3.3 6.9 -11.9 18.6 -15.7 21.2 -1.8 1.3 -1.9 2.7 -1.9 23.4 l0 21.9 -6.8 0 c-3.8 0 -7.1 0.2 -7.4 0.5 -0.6 0.6 5.9 35.2 7.2 38 0.4 1.1 4.5 21.4 9 45 4.4 23.7 8.4 43.7 8.7 44.5 0.9 2.3 0.7 1 9.8 48 4.7 24.5 9 45.9 9.6 47.5 0.5 1.7 4.6 21.9 9 45 4.4 23.1 8.5 43.8 9 46 0.6 2.2 3.7 17.7 7 34.5 3.3 16.8 7.3 37 9 45 1.7 8 7 34.9 11.9 59.9 4.9 24.9 9.2 46.1 9.5 47 0.4 0.9 4.6 21.9 9.5 46.6 4.8 24.8 9 45.9 9.3 47 0.3 1.1 4 19.3 8.1 40.4 4.2 21.9 8 38.9 8.8 39.6 0.7 0.6 3.6 2.1 6.4 3.2 7.5 3 15.4 8.3 26.1 17.6 13.1 11.2 22 23.8 25.8 36.2 1.2 3.8 1.4 4 5.1 3.8 5.9 -0.4 31.7 -5.2 41.9 -7.8 13.9 -3.6 27.1 -4.8 42.5 -4 13.5 0.6 29.5 2.9 31.4 4.4 0.6 0.4 3.8 1.8 7.1 3.1 38.7 15.1 73.2 44.6 78.9 67.6 0.8 3.2 2.4 10.4 3.6 15.9 3.4 15.1 19.3 59.8 28.5 80 3.1 6.9 8.5 19.6 8.5 20.1 0 0.2 -207.4 0.4 -461 0.4 -311 0 -461 -0.3 -461 -1z m565.2 -239.1 c-0.2 -1.3 -0.7 -3.5 -1.2 -4.9 -0.5 -1.4 -4.8 -22.7 -9.5 -47.4 -4.7 -24.7 -8.8 -45.3 -9.1 -45.8 -0.3 -0.5 -2.9 -13.1 -5.8 -28.1 l-5.2 -27.2 -91.2 -0.3 -91.2 -0.2 -0.5 2.2 c-0.3 1.3 -3 14.7 -6.1 29.8 -5.9 29.1 -5.8 28.7 -6.7 31 -1 2.6 -8.5 41.5 -8.1 41.9 1.3 1.3 8.8 -4.2 13.6 -9.9 11.1 -13.2 32.6 -26.1 56.7 -34 24.3 -7.9 34.9 -7.2 56.6 3.8 5.9 2.9 18.5 11 20 12.7 0.5 0.6 3.9 3.4 7.5 6 18.8 14 40.5 37.9 47.1 52.1 l3.8 8.1 8.2 4.4 c8.9 4.8 18.8 9 20.4 8.5 0.6 -0.2 0.9 -1.4 0.7 -2.7z m-80.2 -203.8 c0 -0.5 -5.3 -6.2 -11.8 -12.7 -18.9 -19.1 -81.6 -83.6 -85 -87.4 -1.7 -1.9 -3.4 -3.2 -3.7 -2.8 -0.4 0.4 -2.3 8.1 -4.1 17 -1.8 9 -3.7 17.7 -4.3 19.3 -1.2 3.5 -13.1 63.4 -13.1 65.9 0 1.5 5.4 1.6 61 1.6 34.7 0 61 -0.4 61 -0.9z m30.5 -44.3 c-0.7 -3 -6.7 -32.5 -11.6 -56.8 -2.1 -10.7 -4.1 -20.5 -4.4 -21.7 l-0.5 -2.3 -32.6 0 c-20.2 0 -32.4 0.4 -32.2 1 0.3 0.9 26.1 27.3 62.6 64.3 9.7 9.7 18 17.7 18.4 17.7 0.5 0 0.6 -1 0.3 -2.2z m-41.5 -131.5 c0 -0.4 -2.2 -3.9 -5 -7.9 -2.7 -4 -5 -7.5 -5 -7.8 0 -0.4 -4 -6.6 -8.8 -13.9 -12 -18 -27 -40.8 -32.2 -48.9 -2.3 -3.8 -4.6 -6.8 -5.1 -6.8 -0.5 0 -1.1 1.2 -1.5 2.8 -0.3 1.5 -1.2 5.2 -2 8.2 -1.1 4.2 -15.4 73.6 -15.4 74.8 0 0.1 16.9 0.2 37.5 0.2 20.6 0 37.5 -0.3 37.5 -0.7z m-8 -113.8 l-2.3 -11.5 -5.3 0 c-3.1 0 -5.4 0.4 -5.4 1 0 0.6 1.5 3.4 3.3 6.3 1.9 2.9 5.1 7.8 7.1 11 2.1 3.2 4 5.6 4.3 5.3 0.3 -0.3 -0.4 -5.7 -1.7 -12.1z m-12.6 -63 c-0.1 -1.1 -2 -10.7 -4.1 -21.4 -2.7 -12.7 -4.3 -18.9 -4.9 -18 -0.9 1.4 -8.3 36.9 -8.4 40.2 0 1.6 0.9 1.7 8.8 1.5 8 -0.3 8.7 -0.5 8.6 -2.3z m2.8 -200.4 c11.6 -7.4 13.7 -19.8 4.9 -28.9 -9.4 -9.6 -19.7 -9.4 -28.3 0.7 -4.9 5.7 -6 10 -4.2 15.9 4 13 17.2 18.9 27.6 12.3z"></path>
  <path d="M416 702.7 c0 -0.3 2.8 -2.2 6.3 -4.3 3.4 -2 9.1 -5.5 12.6 -7.8 8.7 -5.6 32.9 -19.1 48.6 -27.2 7.2 -3.6 13.1 -6.8 13.3 -6.9 0.2 -0.2 -6.1 -9.3 -14.1 -20.2 -7.9 -10.9 -16 -22.3 -18 -25.3 -3.8 -5.6 -21.8 -31.6 -31.6 -45.5 -2.9 -4.2 -5 -7.9 -4.7 -8.2 0.3 -0.4 4.3 0.1 8.8 1.1 4.6 0.9 21.1 3.9 36.8 6.6 32 5.5 51.4 9.2 61 11.4 15.1 3.6 28.6 6.5 29.8 6.6 0.6 0 1.2 -0.5 1.2 -1 0 -1.1 -14.6 -38.4 -16.1 -40.9 -0.5 -0.9 -3.3 -7.8 -6.3 -15.5 l-5.4 -13.9 8.6 0.7 c32 2.5 72.1 7.3 88.2 10.6 5.2 1 16.3 3.1 24.5 4.6 8.3 1.5 15.8 3 16.8 3.3 1.1 0.4 -5.7 2.1 -16.5 4 -10 1.8 -19.3 3.6 -20.4 4.1 -1.2 0.5 -11.7 2.1 -23.3 3.7 -11.7 1.5 -21.1 3.2 -21.1 3.8 0.1 0.5 2.3 4.6 5 9 2.7 4.4 7.5 12.5 10.6 18 3.2 5.5 7 12 8.5 14.5 1.5 2.5 6.3 10.8 10.5 18.5 4.3 7.7 9.2 16.3 10.9 19 4.6 7.4 13.7 24.5 13 24.5 -0.4 0 -15.6 -2.7 -33.8 -6 -34.8 -6.4 -50.5 -9.5 -77.5 -15.5 -9 -2 -16.6 -3.5 -16.8 -3.2 -0.3 0.2 5.1 11.2 11.9 24.3 6.8 13.1 12.3 24 12.2 24.1 -0.3 0.5 -56.1 14.8 -72 18.4 -9.3 2.1 -25.1 5.2 -35 6.8 -24.5 4.1 -26.5 4.4 -26.5 3.8z"></path>
  <path d="M1136.8 688.5 c-0.3 -0.3 -9.7 -2.1 -20.9 -4 -24.6 -4.1 -46.5 -8.6 -61.4 -12.5 -42.1 -11.1 -50.5 -13.4 -50.5 -14.3 0 -0.5 5.4 -11.4 12.1 -24.3 13.9 -27 14.3 -25.1 -4.1 -20.5 -6.3 1.6 -20.9 4.8 -32.5 7 -11.5 2.2 -30.2 5.8 -41.5 8 -20.4 3.9 -33.4 6.5 -37.8 7.6 l-2.4 0.6 3 -5.3 c13.6 -24.4 21.7 -38.5 22.7 -39.8 0.7 -0.8 2.8 -4.4 4.6 -8 1.8 -3.6 8 -14.3 13.6 -23.8 5.7 -9.5 10.3 -17.5 10.3 -17.7 0 -0.3 1.4 -2.7 3.1 -5.5 1.7 -2.8 2.9 -5.3 2.7 -5.5 -0.2 -0.3 -7.6 -1.4 -16.4 -2.5 -24.8 -3.2 -63.1 -10.3 -64.8 -12.1 -1.1 -1.1 48.4 -9.6 80.9 -13.9 7.7 -1 22.3 -2.6 32.5 -3.4 10.2 -0.9 20 -1.8 21.7 -2.1 l3.3 -0.4 -1.6 3.7 c-0.9 2 -5.3 13.2 -9.9 24.7 -4.5 11.6 -8.9 22.6 -9.9 24.5 -3.2 6.4 -7.8 18.1 -7.4 18.6 0.5 0.5 37.2 -6.9 42.3 -8.6 6.1 -1.9 95.5 -17.3 96.2 -16.6 0.2 0.2 -2 3.7 -4.9 7.8 -7.1 10 -14.5 20.6 -25.3 36.4 -13.9 20.3 -19.3 27.8 -29.2 41.1 -5.1 6.8 -9.3 12.7 -9.3 13.1 0 0.4 2.6 1.8 5.7 3.2 3.1 1.4 8.1 4 11.1 5.7 3 1.8 10 5.7 15.6 8.7 11.4 6.1 15.3 8.4 36 20.9 8 4.8 14.6 9 14.6 9.2 0 0.7 -1.5 0.6 -2.2 0z"></path>
  <path d="M660.5 455.8 c-16.2 -2.4 -36.8 -6.1 -44 -7.8 -4.4 -1.1 -14.1 -3.3 -21.5 -5 -23.2 -5.4 -55.3 -13.8 -59.4 -15.5 -2.2 -0.9 -3.5 -2 -3 -2.3 0.6 -0.4 3.6 -6.1 6.8 -12.7 3.1 -6.6 7.8 -15.8 10.4 -20.5 2.6 -4.7 5.3 -9.8 5.9 -11.4 1.2 -2.7 1.2 -2.8 -0.9 -2.2 -1.3 0.3 -14.6 3.1 -29.7 6.1 -15.1 3.1 -27.8 5.8 -28.2 6.1 -0.5 0.3 -15.6 3.2 -33.6 6.5 -18.1 3.2 -33.6 6.1 -34.5 6.3 -1.4 0.3 -0.8 -1.3 2.4 -7.3 2.2 -4.2 5.3 -9.6 6.9 -12.1 1.5 -2.5 6.5 -11.2 11.2 -19.5 12.3 -21.9 15.9 -28.1 27.4 -47.3 5.6 -9.5 10.3 -17.5 10.3 -17.7 0 -0.8 -7.7 -2.3 -19.5 -3.9 -18.5 -2.5 -30.5 -4.5 -48.5 -7.8 l-16.5 -3.2 8 -1.6 c4.5 -0.9 8.5 -1.9 9.1 -2.2 1.8 -1.2 36.8 -6.7 58.4 -9.2 22.9 -2.7 64.2 -6.7 64.7 -6.2 0.3 0.3 -9.7 26.5 -12.6 32.9 -3.6 8 -15.1 37 -14.8 37.3 0.2 0.2 9 -1.4 19.5 -3.6 35.8 -7.4 116.7 -22.2 118.5 -21.7 0.7 0.2 -1.6 3.7 -23 34.5 -5.6 8.1 -12.8 18.5 -16 23.2 -5.5 8.1 -10.6 15.1 -23.5 32.3 -3.2 4.3 -5.8 8.2 -5.8 8.7 0 0.5 6.4 4.1 14.3 8.1 7.8 4 17.4 9.1 21.2 11.4 3.9 2.3 11.5 6.7 17 9.8 5.5 3.1 13.7 8 18.2 10.9 4.5 2.9 9 5.8 10 6.5 1 0.6 1.6 1.2 1.3 1.1 -0.3 0 -3.2 -0.5 -6.5 -1z"></path>
  <path d="M888 439.9 c8.7 -5.8 24.8 -15.5 34.5 -20.9 6.6 -3.7 14.8 -8.3 18.2 -10.3 3.4 -2.1 10.9 -6 16.7 -8.8 5.8 -2.9 10.6 -5.5 10.6 -6 0 -0.4 -3.7 -5.7 -8.2 -11.8 -4.6 -6.1 -10.1 -13.6 -12.3 -16.7 -2.2 -3.2 -9.1 -13 -15.3 -21.8 -6.2 -8.9 -14.7 -21 -18.8 -27.1 -4.1 -6 -9.1 -13.2 -11 -15.9 -1.9 -2.7 -3.3 -5.1 -3 -5.3 0.5 -0.6 21.2 2.5 24.9 3.7 1.6 0.5 12.4 2.6 24 4.5 31.3 5.3 67.3 12.3 74.7 14.5 9.1 2.7 15 3.5 15 2.1 0 -0.7 -1.6 -4.6 -3.6 -8.9 -2 -4.2 -6.7 -15.7 -10.6 -25.7 -3.8 -9.9 -7.6 -19.3 -8.5 -21 -2.6 -5.3 -5.5 -13.6 -4.9 -14.2 1.3 -1.3 76.1 6.7 95.1 10.2 12.9 2.3 42.8 8.4 43.1 8.8 0.7 0.7 -45.4 8.9 -66.8 12 -8.7 1.2 -15.8 2.6 -15.8 3 0 0.5 1 2.3 2.2 4 2.4 3.3 16.4 27.3 24.4 41.7 2.6 4.7 6.2 11 8 14 1.8 3 6.8 11.8 11 19.5 4.3 7.7 9.3 16.4 11.2 19.4 l3.5 5.4 -3.4 -0.6 c-31.7 -5.4 -67.1 -12.2 -103.8 -20.1 -11.8 -2.5 -21.7 -4.3 -22 -4 -0.3 0.2 5 11.3 11.7 24.4 6.7 13.2 12.1 24 11.9 24 -0.1 0 -14.4 3.6 -31.7 8.1 -17.3 4.4 -37.3 9.3 -44.5 10.9 -12.7 2.9 -53.6 10.1 -56.5 9.9 -1.3 0 -1.3 -0.1 0 -1z"></path>
  <path d="M767 401.3 c0 -1.6 4.1 -18 6.4 -25.8 1.4 -4.4 4.3 -14.7 6.6 -23 4.9 -17.7 10.6 -36.1 12.2 -39.2 0.6 -1.3 0.9 -2.5 0.7 -2.7 -0.2 -0.3 -6.5 -1.4 -13.9 -2.6 -22.2 -3.5 -46.9 -8 -56 -10.1 -4.7 -1.1 -17.7 -3.7 -28.9 -5.8 l-20.3 -3.7 8.8 -6.5 c9.1 -6.6 12.6 -8.9 50.6 -34.3 31.5 -21.1 43.3 -28.7 51 -33.2 3.7 -2.1 6.8 -4.2 6.8 -4.6 0 -0.8 -10.6 -5.8 -27 -12.5 -7.4 -3 -17.1 -7.2 -21.5 -9.4 -4.4 -2.1 -11 -5.1 -14.8 -6.7 l-6.7 -2.8 6.1 -5 c29.9 -24.1 58.3 -45.9 67.9 -52.4 3.6 -2.3 7.4 -5.1 8.5 -6.1 3.1 -2.7 30.6 -20.1 31.1 -19.6 0.3 0.2 -2.4 4.4 -5.9 9.3 -3.4 4.9 -8.5 12.1 -11.2 15.9 -9.7 13.6 -22.7 31 -29 38.5 l-3.7 4.4 9.9 2.7 c34.7 9.4 56.8 15.6 92.5 26.1 l14.7 4.4 -5.4 3.2 c-3 1.8 -6 3.9 -6.8 4.6 -0.7 0.8 -7.1 5.1 -14.3 9.7 -7.1 4.5 -14.9 9.7 -17.4 11.5 -2.5 1.8 -9 6 -14.5 9.4 -5.5 3.4 -10.2 6.5 -10.5 6.9 -0.4 0.6 -20.6 13.5 -36.3 23.1 -2.2 1.4 -4.2 3 -4.4 3.5 -0.2 0.6 6.3 3.1 14.4 5.7 13.4 4.2 34.3 11.5 35.1 12.2 0.3 0.4 -12.6 23.6 -14.3 25.6 -0.7 0.8 -4.8 7.6 -9.2 15 -14.9 25.1 -51.3 77.9 -51.3 74.3z"></path>
 </g><g fill="#d27b57">
  <path d="M780.3 517.1 c-8.7 -2.2 -15.9 -10.8 -17 -20.4 -1.6 -12.6 9.7 -25.1 22.7 -25.1 19 0 29.8 21.7 18.3 37.1 -4.9 6.6 -15.8 10.4 -24 8.4z"></path>
 </g></svg></g></g><defs><clipPath id="SvgjsClipPath1354"><rect width="1000" height="1000" x="0" y="0" rx="300" ry="300"></rect></clipPath></defs></svg>