<?xml version="1.0" encoding="UTF-8"?>
<svg id="Layer_1" data-name="Layer 1" xmlns="http://www.w3.org/2000/svg" viewBox="0 0 1900 3578">
  <path d="M899.94,3578c-34.65-46.1-77.95-54.76-73.62-119.73s0-34.65-25.98-82.29-77.95-77.95-56.3-95.28,186.23-51.97,155.91-77.95-69.29-64.96-112.6-64.96-56.3,60.63-73.62,0-8.66,0-17.32-60.63-38.98-34.65-8.66-60.63,160.24,38.98,177.56,0,51.97-60.63,4.33-64.96-121.26,38.98-142.92,0-34.65-38.98-17.32-64.96,25.19-73.62,79.72-90.95,249.42-99.61,292.73-125.59,82.29-86.62,173.23-121.26,644.93-86.62,644.93-86.62v-25.98L0,2462.19v1115.81s899.94,0,899.94,0"/>
</svg>